<?xml version="1.0" encoding="UTF-8"?>
<svg xmlns="http://www.w3.org/2000/svg" xmlns:xlink="http://www.w3.org/1999/xlink" width="32pt" height="32pt" viewBox="0 0 32 32" version="1.1">
<g id="surface1">
<path style=" stroke:none;fill-rule:nonzero;fill:rgb(29.019608%,68.235294%,90.980392%);fill-opacity:1;" d="M 12.523438 29.921875 C 11.042969 29.710938 9.382812 29.332031 8.351562 28.964844 C 6.195312 28.195312 4.421875 26.945312 3.84375 25.78125 C 3.554688 25.203125 3.542969 25.101562 3.542969 23.117188 C 3.542969 21.960938 3.589844 21.054688 3.648438 21.054688 C 3.703125 21.054688 3.886719 21.28125 4.050781 21.5625 C 5.570312 24.15625 10.976562 25.875 16.875 25.648438 C 22.328125 25.4375 26.65625 23.796875 27.835938 21.484375 C 27.992188 21.183594 28.167969 20.9375 28.226562 20.9375 C 28.425781 20.9375 28.492188 21.734375 28.4375 23.460938 C 28.390625 25.007812 28.359375 25.21875 28.09375 25.746094 C 27.148438 27.582031 24.433594 29 20.414062 29.757812 C 18.734375 30.078125 14.289062 30.167969 12.523438 29.921875 Z M 13.164062 24.28125 C 9.585938 23.921875 6.265625 22.703125 4.703125 21.167969 C 3.671875 20.15625 3.609375 19.953125 3.5625 17.546875 C 3.539062 16.164062 3.570312 15.488281 3.648438 15.488281 C 3.71875 15.488281 3.902344 15.695312 4.0625 15.945312 C 5.066406 17.539062 7.691406 18.875 11.125 19.539062 C 17.964844 20.859375 25.96875 19.101562 27.789062 15.878906 C 27.980469 15.539062 28.179688 15.257812 28.234375 15.257812 C 28.414062 15.257812 28.492188 16.296875 28.441406 17.859375 C 28.394531 19.242188 28.355469 19.46875 28.070312 20.046875 C 26.613281 23.027344 19.835938 24.953125 13.164062 24.28125 Z M 13.511719 18.605469 C 8.917969 18.199219 5.007812 16.484375 3.914062 14.402344 C 3.625 13.84375 3.601562 13.695312 3.5625 11.992188 C 3.515625 9.765625 3.585938 9.554688 4.125 10.390625 C 5.101562 11.914062 7.398438 13.082031 10.71875 13.75 C 18.015625 15.21875 26.171875 13.417969 27.929688 9.953125 C 28.035156 9.746094 28.164062 9.578125 28.21875 9.578125 C 28.363281 9.578125 28.46875 12.703125 28.347656 13.453125 C 27.796875 16.859375 20.890625 19.257812 13.511719 18.605469 Z M 14.078125 12.925781 C 9.296875 12.625 4.941406 10.761719 3.929688 8.59375 C 2.546875 5.625 6.726562 2.726562 13.382812 2.03125 C 15.253906 1.835938 18.886719 1.953125 20.53125 2.261719 C 22.460938 2.625 23.746094 3.027344 25.1875 3.726562 C 27.296875 4.757812 28.347656 5.984375 28.347656 7.414062 C 28.347656 10.835938 21.679688 13.410156 14.078125 12.925781 Z M 14.078125 12.925781 "/>
</g>
</svg>
